<?xml version="1.0" encoding="UTF-8"?>
<svg xmlns="http://www.w3.org/2000/svg" viewBox="0 0 1024 1024" width="1024" height="1024">
<g><path fill="#01a7b6" d="M 436.5,21.5 C 463.332,18.5008 486.665,26.0008 506.5,44C 540.28,80.2374 553.447,123.071 546,172.5C 540.274,205.815 524.441,232.982 498.5,254C 473.518,271.425 446.518,275.425 417.5,266C 384.399,250.045 362.899,224.212 353,188.5C 340.218,140.845 348.218,97.1784 377,57.5C 393.168,39.1777 413.001,27.1777 436.5,21.5 Z"/></g>
<g><path style="opacity:1" fill="#01a7b6" d="M 324.5,551.5 C 324.19,550.262 323.69,550.262 323,551.5C 312.146,579.113 305.813,607.78 304,637.5C 303.184,654.197 303.351,668.197 304.5,679.5C 313.188,796.068 364.854,888.234 459.5,956C 490.857,975.627 524.524,990.127 560.5,999.5C 560.64,1001.12 559.973,1002.29 558.5,1003C 504.193,1012.46 451.526,1006.79 400.5,986C 328.864,954.551 271.364,906.051 228,840.5C 174.043,757.401 145.71,666.068 143,566.5C 139.964,491.743 151.631,419.41 178,349.5C 201.762,288.763 238.596,237.597 288.5,196C 295.922,190.206 303.755,185.039 312,180.5C 312.945,180.905 313.612,181.572 314,182.5C 314.005,244.711 340.505,291.544 393.5,323C 419.965,335.38 446.631,347.38 473.5,359C 505.675,375.165 533.841,396.665 558,423.5C 562.333,429.5 566.667,435.5 571,441.5C 575.319,448.471 578.819,455.804 581.5,463.5C 578.984,463.245 576.65,462.411 574.5,461C 536.038,432.907 493.371,424.24 446.5,435C 413.944,443.872 386.444,461.039 364,486.5C 347.73,506.273 334.563,527.939 324.5,551.5 Z"/></g>
<g><path style="opacity:1" fill="#fc962d" d="M 666.5,206.5 C 694.81,204.982 717.644,215.316 735,237.5C 758.187,272.841 762.52,310.508 748,350.5C 727.125,396.897 692.292,413.064 643.5,399C 614.134,382.475 597.634,357.309 594,323.5C 590.012,290.443 598.012,260.776 618,234.5C 631.071,219.556 647.237,210.222 666.5,206.5 Z"/></g>
<g><path style="opacity:1" fill="#fc962d" d="M 732.5,698.5 C 733.691,690.862 734.358,683.029 734.5,675C 734.466,667.386 733.799,660.553 732.5,654.5C 724.782,589.386 694.615,537.386 642,498.5C 638.137,492.515 638.97,487.348 644.5,483C 671.467,471.784 698.134,459.784 724.5,447C 747.538,429.307 765.371,407.474 778,381.5C 785.299,358.96 791.966,336.293 798,313.5C 836.291,360.622 860.958,414.288 872,474.5C 891.543,591.045 874.209,701.711 820,806.5C 795.959,850.041 765.126,888.208 727.5,921C 699.809,943.711 668.476,958.711 633.5,966C 604.289,970.371 576.622,965.704 550.5,952C 547.961,950.901 547.295,949.234 548.5,947C 639.285,906.63 697.785,838.464 724,742.5C 727.391,727.8 730.224,713.134 732.5,698.5 Z"/></g>
<g><path style="opacity:1" fill="#02a6b6" d="M 481.5,514.5 C 508.474,514.404 528.641,526.07 542,549.5C 559.207,583.204 558.54,616.537 540,649.5C 516.562,683.662 486.729,690.495 450.5,670C 433.466,655.437 423.632,636.937 421,614.5C 415.912,579.41 426.412,550.243 452.5,527C 461.332,520.576 470.999,516.409 481.5,514.5 Z"/></g>
<g><path style="opacity:1" fill="#1894a7" d="M 324.5,551.5 C 309.177,592.733 302.51,635.399 304.5,679.5C 303.351,668.197 303.184,654.197 304,637.5C 305.813,607.78 312.146,579.113 323,551.5C 323.69,550.262 324.19,550.262 324.5,551.5 Z"/></g>
<g><path style="opacity:1" fill="#01a7b6" d="M 413.5,693.5 C 413.414,694.496 413.748,695.329 414.5,696C 434.779,709.482 456.779,718.982 480.5,724.5C 485.149,725.15 489.816,725.65 494.5,726C 509.199,726.816 521.199,726.649 530.5,725.5C 569.774,720.37 605.774,706.537 638.5,684C 656.135,668.694 671.302,651.194 684,631.5C 685.351,629.981 686.851,628.648 688.5,627.5C 689.086,627.709 689.586,628.043 690,628.5C 694.504,658.169 692.837,687.503 685,716.5C 674.285,753.941 656.285,787.275 631,816.5C 602.574,849.958 568.741,876.124 529.5,895C 507.103,904.906 484.77,904.906 462.5,895C 441.813,880.982 425.313,863.148 413,841.5C 385.074,790.883 376.408,737.216 387,680.5C 390.275,676.68 393.775,676.513 397.5,680C 402.731,684.74 408.064,689.24 413.5,693.5 Z"/></g>
<g><path style="opacity:1" fill="#fa8312" d="M 732.5,698.5 C 732.5,683.833 732.5,669.167 732.5,654.5C 733.799,660.553 734.466,667.386 734.5,675C 734.358,683.029 733.691,690.862 732.5,698.5 Z"/></g>
<g><path style="opacity:1" fill="#1595a7" d="M 413.5,693.5 C 439.404,711.194 468.071,721.694 499.5,725C 509.828,725.5 520.161,725.666 530.5,725.5C 521.199,726.649 509.199,726.816 494.5,726C 489.816,725.65 485.149,725.15 480.5,724.5C 456.779,718.982 434.779,709.482 414.5,696C 413.748,695.329 413.414,694.496 413.5,693.5 Z"/></g>
</svg>
