<svg xmlns="http://www.w3.org/2000/svg" viewBox="480 235 350 280"
     style="shape-rendering:geometricPrecision;text-rendering:geometricPrecision;image-rendering:optimizeQuality;fill-rule:evenodd;clip-rule:evenodd">
    <defs>
        <style type="text/css">
            @import url('https://fonts.googleapis.com/css2?family=Montserrat:wght@700&amp;family=Poppins:wght@700&amp;display=swap');
        </style>
    </defs>
    <path fill="#348ccc"
          d="M580.5 256.5q4.108-.803 5.5 3 4.469 13.563 6.5 27-4.188.072-5.5-4a290 290 0 0 0-7-18q-.903-4.081.5-8"
          style="opacity:1"/>
    <path fill="#2a89cc"
          d="M568.5 267.5q2.806.538 4.5 3a143 143 0 0 0 9 18 8.4 8.4 0 0 1 .5 4q-3.604.16-5.5-3a143 143 0 0 0-9-13q-3.126-4.85.5-9"
          style="opacity:1"/>
    <path fill="#328bcc" d="M616.5 266.5q5.145-1.117 5 4a68 68 0 0 0-4.5 15q-3.616 8.176-4.5-.5a623 623 0 0 1 4-18.5"
          style="opacity:1"/>
    <path fill="#2e8acb"
          d="M598.5 258.5q2.835-.305 4.5 2 1 12.5 0 25-2.092 1.972-3-1-1.165-4.394.5-8.5-3.474-8.554-2-17.5"
          style="opacity:1"/>
    <path fill="#e2403c"
          d="M671.5 279.5h6q.303 3.734-1.5 7a85.6 85.6 0 0 0-10.5 16q-1.783 1.393-4 1a94.4 94.4 0 0 1 10-24"
          style="opacity:1"/>
    <path fill="#e3413c" d="M634.5 287.5q4.962-.79 6.5 4a472 472 0 0 1-.5 18 74.7 74.7 0 0 0-6.5-14q-1.083-4.141.5-8"
          style="opacity:1"/>
    <path fill="#2788cb"
          d="M598.5 289.5q9.819.885 18 6 5.428 11.373 4.5 24-4.238 11.496-16.5 10.5-6.885 5.548-15 2-6.415-6.125-11-13.5.74-4.478 3.5-8 .14-6.511 0-13 6.933-7.291 16.5-8"
          style="opacity:1"/>
    <path fill="#e2413d"
          d="M688.5 286.5h5q.811 8.128-7 10.5a155 155 0 0 1-12 12.5q-3.578-1.97-.5-5a372 372 0 0 1 14.5-18"
          style="opacity:1"/>
    <path fill="#2d88cb"
          d="M554.5 306.5a24.4 24.4 0 0 1 10 1.5 41.3 41.3 0 0 0 11 7.5l-1.5 1a56.5 56.5 0 0 0-16.5-2.5q-5.016-2.65-3-7.5"
          style="opacity:1"/>
    <path fill="#e2413d"
          d="M697.5 302.5q6.988-.728 4 5.5a216 216 0 0 0-17 10 12.9 12.9 0 0 1-5 .5q-.255-1.983 1-3.5a26 26 0 0 0 5-3.5 3.65 3.65 0 0 1 1.5 1 149 149 0 0 1 10.5-10"
          style="opacity:1"/>
    <path fill="#f4d941"
          d="M542.5 306.5q2.835-.305 4.5 2 3.993 6.754 4.5 14.5l-1.5 1.5q-7.439-5.187-9.5-14 .377-2.36 2-4"
          style="opacity:1"/>
    <path fill="#e13d39"
          d="M656.5 306.5q20.49 4.943 23 26a10.4 10.4 0 0 1-1.5 5 38.2 38.2 0 0 0-9.5 9.5q-14.464 10.607-23.5-4.5-9.27-3.755-10.5-13.5 2.271-7.3 5-14.5 11.29 1.28 17-8"
          style="opacity:1"/>
    <path fill="#f3d63a"
          d="M514.5 317.5a8.4 8.4 0 0 1 4 .5q5.742 7.259 14 11 4.289 4.08-1 5a49.9 49.9 0 0 0-16-10q-3.276-2.846-1-6.5"
          style="opacity:1"/>
    <path fill="#e34540" d="M700.5 322.5q7.75-1.512 5 5.5a923 923 0 0 1-22 3.5q-.255-1.983 1-3.5 8.686-1.476 16-5.5"
          style="opacity:1"/>
    <path fill="#f3d831"
          d="M550.5 327.5q20.807 1.553 21.5 22-.841 4.185-4 7-1.201 19.493-20.5 15.5a45.4 45.4 0 0 1-11.5-3.5q-13.233-19.436 3.5-36.5a123 123 0 0 1 11-4.5"
          style="opacity:1"/>
    <path fill="#f3d634"
          d="M502.5 332.5a18.5 18.5 0 0 1 6 .5q4.578 2.902 10 4 3.483 2.886 8 4 1.255 1.517 1 3.5a154 154 0 0 1-23-5.5q-4.588-2.095-2-6.5"
          style="opacity:1"/>
    <path fill="#f2d632" d="M501.5 349.5a356 356 0 0 0 23 3.5q2.21 1.064 2 3.5-12.51.25-25-.5-3.841-3.234 0-6.5"
          style="opacity:1"/>
    <path fill="#f3d93a"
          d="M530.5 369.5a2.43 2.43 0 0 1 2 .5 109.5 109.5 0 0 1-13 12q-6.9 2.375-5.5-4.5 1.25-2.25 3.5-3.5 6.979-1.305 13-4.5"
          style="opacity:1"/>
    <path fill="#39b140"
          d="M558.5 384.5q5.945-.617 11 2.5 5.192 9.174 12.5 16.5a12.5 12.5 0 0 1 0 7q-4.248 5.254-6.5 11.5a20.6 20.6 0 0 1-9-.5q-3.282-.289-5 2.5-3 1-6 0a19.4 19.4 0 0 0-7.5-5.5q-1.38-5.157-5-9a88.6 88.6 0 0 1-1-14q7.762-6.563 16.5-11"
          style="opacity:1"/>
    <path fill="#42b74c" d="M518.5 397.5h20v3a131.4 131.4 0 0 1-21 2q-.201-2.687 1-5" style="opacity:1"/>
    <path fill="#fd700e"
          d="M658.5 406.5q5.025-.247 10 .5a79.5 79.5 0 0 0 12.5 7.5q1.2 5.604-1.5 10.5a84 84 0 0 0 4 9.5l-.5 3a34.7 34.7 0 0 0-6.5 7.5q-10.26 5.552-22 5.5-4.07-.66-6.5-4-2.376-6.262-7-11-7.402-17.73 10.5-23 2.71-4.078 7-6"
          style="opacity:1"/>
    <path fill="#43b54b"
          d="M535.5 409.5a8.4 8.4 0 0 1 4 .5q1.817 1.34 0 2.5a77.4 77.4 0 0 0-18 9.5q-5.8.462-3-5 8.987-3.001 17-7.5"
          style="opacity:1"/>
    <path fill="#fc731f" d="M686.5 418.5q10.53-2.347 21 1.5 2.237 3.032-1 5-9.078 2.21-15-5a27.6 27.6 0 0 1-5-1.5"
          style="opacity:1"/>
    <path fill="#783688"
          d="M597.5 422.5a32.5 32.5 0 0 1 8 .5l18 5 3.5 3.5a257 257 0 0 1 3.5 17 110 110 0 0 1-8.5 5q-.285 5.364-3.5 9.5-5.782.531-11.5 1.5-12.182-2.145-20-12a11.53 11.53 0 0 1-1.5-5.5q-.534-15.678 12-24.5"
          style="opacity:1"/>
    <path fill="#40b449"
          d="M542.5 419.5q3.279.017 2.5 3a180 180 0 0 1-16.5 15.5 12.9 12.9 0 0 1-5 .5 12.9 12.9 0 0 1 .5-5 464 464 0 0 0 18.5-14"
          style="opacity:1"/>
    <path fill="#41b448"
          d="M551.5 426.5q2.628-.123 3 2.5a90.3 90.3 0 0 1-13 18q-6.25 1.75-4.5-4.5a110 110 0 0 0 14.5-16"
          style="opacity:1"/>
    <path fill="#42b54a" d="M572.5 426.5q3.255 9.584 2.5 20-2.217 5.24-6 1l-.5-5q3.366-7.462 4-16" style="opacity:1"/>
    <path fill="#fc7019"
          d="M685.5 438.5a4.93 4.93 0 0 1 3 .5l17.5 13.5q.743 2.96.5 6a12 12 0 0 1-6-1 308 308 0 0 0-14.5-15 8.4 8.4 0 0 1-.5-4"
          style="opacity:1"/>
    <path fill="#fd7219"
          d="M677.5 448.5q2.712-.014 5 1.5a204 204 0 0 1 15.5 18.5q-.857 8.449-7 2a124.6 124.6 0 0 1-13.5-22"
          style="opacity:1"/>
    <path fill="#7e3c8c"
          d="M583.5 455.5q2.243-.128 3 2a15.7 15.7 0 0 0-2.5 4 88 88 0 0 0-9.5 12.5q-7.467 1.154-3.5-5.5 7.607-5.354 12.5-13"
          style="opacity:1"/>
    <path fill="#fb7017"
          d="M655.5 453.5q1.494-.129 2.5 1 2.263 4.243.5 8.5 3.997 6.214 2.5 13.5-2.907 2.04-5-1a308 308 0 0 0-1.5-17.5 14.7 14.7 0 0 1 1-4.5"
          style="opacity:1"/>
    <path fill="#7c3a8b" d="M631.5 451.5q6.003 6.237 13.5 11 3.519 3.309 1.5 7.5-5.288.987-8.5-3.5-1.649-8.287-6.5-15"
          style="opacity:1"/>
    <path fill="#fc6e14"
          d="M667.5 452.5q1.762-.329 3 1a394 394 0 0 0 11 21.5q-1.78 3.885-5.5 1.5a118.6 118.6 0 0 1-8.5-24"
          style="opacity:1"/>
    <path fill="#7a3888"
          d="M616.5 466.5q2.867.111 3.5 3 1.32 8.991 2.5 18 .864 7.52-6 5a12.9 12.9 0 0 1-1-4 191 191 0 0 0 1-22"
          style="opacity:1"/>
    <path fill="#7d3c8c" d="M593.5 464.5h3a313 313 0 0 0-7.5 22q-1.319 4.27-5 2-1-2.5 0-5z" style="opacity:1"/>
    <path fill="#7d3c8b" d="M604.5 468.5h3q-.837 11.985-1.5 24-4.148 9.996-7.5 0a300 300 0 0 0 6-24" style="opacity:1"/>

    <!-- Text -->
    <text x="705" y="378"
          text-anchor="middle"
          font-family="Montserrat, Arial, sans-serif"
          font-size="24"
          font-weight="700"
          letter-spacing="0.2"
          fill="#333333">PARA Welcome Kit</text>
    <text x="710" y="394"
          text-anchor="middle"
          font-family="Poppins, Arial, sans-serif"
          font-size="14.7"
          font-weight="700"
          letter-spacing="0.5"
          fill="#4f86c6">Building Inclusive Classrooms</text>
</svg>